<?xml version="1.0" encoding="utf-8"?>
<!-- Generator: Adobe Illustrator 16.0.0, SVG Export Plug-In . SVG Version: 6.00 Build 0)  -->
<!DOCTYPE svg PUBLIC "-//W3C//DTD SVG 1.1//EN" "http://www.w3.org/Graphics/SVG/1.1/DTD/svg11.dtd">
<svg version="1.1" id="Layer_1" xmlns="http://www.w3.org/2000/svg" xmlns:xlink="http://www.w3.org/1999/xlink" x="0px" y="0px"
	 width="15px" height="15px" viewBox="0 0 15 15" style="enable-background:new 0 0 15 15;" xml:space="preserve">
<g>
	<path style="fill:#2A2E2C;" d="M8.583,7.307c0-0.773-0.629-1.404-1.401-1.404c-0.773,0-1.402,0.631-1.402,1.404
		c0,0.774,0.629,1.404,1.402,1.404C7.955,8.711,8.583,8.081,8.583,7.307"/>
	<path style="fill:#2A2E2C;" d="M10.095,2.163c0-0.217,0.177-0.395,0.395-0.395h1.221c0.217,0,0.395,0.178,0.395,0.395v1.223
		c0,0.218-0.178,0.396-0.395,0.396H10.49c-0.218,0-0.395-0.178-0.395-0.396V2.163z M7.182,3.926c0.728,0,1.402,0.232,1.953,0.626
		h2.652h2.432V3.56c0-1.962-1.594-3.56-3.553-3.56H3.553C1.594,0,0,1.598,0,3.56v0.992h5.229C5.78,4.158,6.454,3.926,7.182,3.926"/>
	<path style="fill:#2A2E2C;" d="M10.558,7.307c0,1.865-1.514,3.381-3.376,3.381c-1.861,0-3.375-1.516-3.375-3.381
		c0-0.513,0.115-1,0.321-1.437H0v4.873c0,1.963,1.594,3.56,3.554,3.56h7.112c1.959,0,3.553-1.597,3.553-3.56V5.87h-3.982
		C10.443,6.307,10.558,6.794,10.558,7.307"/>
</g>
</svg>
