<?xml version="1.0" encoding="utf-8"?>
<!-- Generator: Adobe Illustrator 16.0.0, SVG Export Plug-In . SVG Version: 6.00 Build 0)  -->
<!DOCTYPE svg PUBLIC "-//W3C//DTD SVG 1.1//EN" "http://www.w3.org/Graphics/SVG/1.1/DTD/svg11.dtd">
<svg version="1.1" id="Layer_1" xmlns="http://www.w3.org/2000/svg" xmlns:xlink="http://www.w3.org/1999/xlink" x="0px" y="0px"
	 width="18px" height="15px" viewBox="0 0 18 15" style="enable-background:new 0 0 18 15;" xml:space="preserve">
<path style="fill:#2A2E2C;" d="M17.242,1.656c-0.636,0.281-1.316,0.479-2.034,0.559c0.738-0.438,1.296-1.136,1.557-1.957
	c-0.679,0.4-1.438,0.699-2.237,0.86C13.869,0.438,12.954,0,11.935,0C9.978,0,8.401,1.575,8.401,3.532c0,0.28,0.02,0.557,0.08,0.819
	c-2.932-0.16-5.527-1.496-7.283-3.634c-0.3,0.521-0.48,1.06-0.48,1.718c0,1.218,0.619,2.295,1.579,2.933
	C1.716,5.348,1.176,5.188,0.699,4.93v0.039c0,1.719,1.217,3.154,2.834,3.474c-0.299,0.078-0.619,0.12-0.938,0.12
	c-0.22,0-0.439-0.021-0.658-0.062c0.438,1.397,1.755,2.437,3.292,2.454c-1.198,0.959-2.733,1.678-4.39,1.678
	c-0.28,0-0.56-0.02-0.839-0.06c1.557,0.998,3.434,1.436,5.428,1.436c6.507,0,10.057-5.387,10.057-10.058V3.492
	C16.165,2.994,16.765,2.374,17.242,1.656"/>
</svg>
